<?xml version="1.0" standalone="no"?>
<!DOCTYPE svg PUBLIC "-//W3C//DTD SVG 1.1//EN" "http://www.w3.org/Graphics/SVG/1.1/DTD/svg11.dtd" >
<!--
2013-9-30: Created.
-->
<svg>
    <metadata>
        Created by iconfont
    </metadata>
    <defs>

        <font id="iconfont" horiz-adv-x="1024">
            <font-face
                    font-family="iconfont"
                    font-weight="500"
                    font-stretch="normal"
                    units-per-em="1024"
                    ascent="896"
                    descent="-128"
            />
            <missing-glyph/>

            <glyph glyph-name="yuanquanzuo" unicode="&#58881;"
                   d="M512-96C246.912-96 32 118.912 32 384 32 649.088 246.912 864 512 864c265.088 0 480-214.912 480-480 0-265.088-214.912-480-480-480z m0 64c229.76 0 416 186.24 416 416S741.76 800 512 800 96 613.76 96 384s186.24-416 416-416z m-114.976 413.952l201.6-201.6a32 32 0 0 0-45.248-45.248l-226.272 226.24a32 32 0 0 0 0 45.28l226.24 226.272a32 32 0 0 0 45.28-45.248l-201.6-205.696z m-22.4-22.848L576 157.76l-201.376 201.376zM576 610.304L426.176 448 576 610.272z"
                   horiz-adv-x="1024"/>


            <glyph glyph-name="yuanquanyou" unicode="&#58882;"
                   d="M512-96c265.088 0 480 214.912 480 480 0 265.088-214.912 480-480 480C246.912 864 32 649.088 32 384c0-265.088 214.912-480 480-480z m0 64C282.24-32 96 154.24 96 384S282.24 800 512 800s416-186.24 416-416-186.24-416-416-416z m114.976 413.952l-201.6-201.6a32 32 0 0 1 45.248-45.248l226.272 226.24a32 32 0 0 1 0 45.28l-226.24 226.272a32 32 0 0 1-45.28-45.248l201.6-205.696z m22.4-22.848L448 157.76l201.376 201.376zM448 610.304L597.824 448 448 610.272z"
                   horiz-adv-x="1024"/>


            <glyph glyph-name="loading04" unicode="&#58883;"
                   d="M227.2 531.2L128 633.6 262.4 768l102.4-102.4c16 9.6 35.2 16 51.2 22.4V832h192v-144c19.2-6.4 35.2-12.8 51.2-22.4L761.6 768 896 633.6l-102.4-102.4c9.6-16 16-35.2 22.4-51.2H960v-192h-144c-6.4-19.2-12.8-35.2-22.4-51.2l102.4-102.4-134.4-134.4-102.4 102.4c-16-9.6-35.2-16-51.2-22.4V-64h-192v144c-19.2 6.4-35.2 12.8-51.2 22.4L262.4 0 128 134.4l102.4 102.4c-9.6 16-16 35.2-22.4 51.2H64v192h144c3.2 19.2 12.8 35.2 19.2 51.2zM512 192c105.6 0 192 86.4 192 192s-86.4 192-192 192-192-86.4-192-192 86.4-192 192-192z"
                   horiz-adv-x="1024"/>


            <glyph glyph-name="loading03" unicode="&#58884;"
                   d="M448 672a96 64 90 1 1 128 0 96 64 90 1 1-128 0ZM448 96a96 64 90 1 1 128 0 96 64 90 1 1-128 0ZM704 384a96 64 0 1 1 192 0 96 64 0 1 1-192 0ZM128 384a96 64 0 1 1 192 0 96 64 0 1 1-192 0ZM647.766905 521.393738a96 64 45.001 1 1 135.762133 135.766872 96 64 45.001 1 1-135.762133-135.766872ZM240.470962 110.83939a96 64 45.001 1 1 135.762133 135.766872 96 64 45.001 1 1-135.762133-135.766872ZM672.02313 135.096405a64 96 45.001 1 1 90.508088 90.511247 64 96 45.001 1 1-90.508088-90.511247ZM261.468782 542.392348a64 96 45.001 1 1 90.508088 90.511247 64 96 45.001 1 1-90.508088-90.511247Z"
                   horiz-adv-x="1024"/>


            <glyph glyph-name="loading02" unicode="&#58885;"
                   d="M832 384c0 176-144 320-320 320V768c211.2 0 384-172.8 384-384h-64zM192 384c0-176 144-320 320-320v-64C300.8 0 128 172.8 128 384h64z"
                   horiz-adv-x="1024"/>


            <glyph glyph-name="mei" unicode="&#58886;"
                   d="M278.4 332.8l153.6 38.4-76.8 134.4-76.8-172.8z m-3.2-67.2l156.8-233.6h278.4l76.8 230.4-300.8 54.4c-3.2 0-3.2 0-6.4 3.2l-204.8-54.4z m121.6 297.6l102.4-185.6 281.6-51.2-128 364.8-256-128z m460.8-256c3.2-12.8 6.4-28.8 0-41.6l-86.4-256c-9.6-25.6-32-44.8-60.8-44.8h-278.4c-22.4 0-41.6 9.6-54.4 28.8l-172.8 259.2c-12.8 19.2-12.8 41.6-6.4 60.8L313.6 576c6.4 12.8 16 25.6 28.8 32l278.4 137.6c32 16 70.4 3.2 86.4-28.8 0-3.2 3.2-3.2 3.2-6.4l147.2-403.2z"
                   horiz-adv-x="1024"/>


            <glyph glyph-name="dian" unicode="&#58887;"
                   d="M480 704h192l-102.4-220.8c-3.2-3.2-3.2-6.4-3.2-12.8 0-12.8 12.8-25.6 25.6-25.6h140.8L448 89.6l51.2 227.2v6.4c0 16-12.8 25.6-25.6 25.6L320 352l160 352z m-32-416l-70.4-288v-6.4c0-16 12.8-25.6 25.6-25.6 6.4 0 12.8 3.2 19.2 9.6l403.2 492.8c3.2 6.4 6.4 12.8 6.4 19.2 0 12.8-9.6 22.4-22.4 22.4h-163.2l112 220.8c3.2 3.2 3.2 6.4 3.2 12.8s-3.2 12.8-9.6 19.2c-9.6 3.2-16 6.4-22.4 3.2H448c-9.6 0-19.2-6.4-22.4-16L240 323.2c0-3.2-3.2-6.4-3.2-12.8 0-16 12.8-25.6 25.6-25.6C256 288 316.8 288 448 288z"
                   horiz-adv-x="1024"/>


            <glyph glyph-name="fuhe" unicode="&#58888;"
                   d="M448 540.8c-108.8-16-192-108.8-192-220.8 0-124.8 99.2-224 224-224 112 0 204.8 83.2 220.8 192H448v252.8z m316.8-252.8c-16-144-137.6-256-284.8-256-160 0-288 128-288 288 0 147.2 112 268.8 256 284.8V704h32c211.2 0 384-172.8 384-384v-32h-99.2zM512 352h288c-16 150.4-134.4 272-288 288v-288z"
                   horiz-adv-x="1024"/>


            <glyph glyph-name="loading05" unicode="&#58889;"
                   d="M512 800a32 32 0 0 0 32-32v-96a32 32 0 0 0-64 0V768a32 32 0 0 0 32 32z m0-704a32 32 0 0 0 32-32v-96a32 32 0 0 0-64 0v96a32 32 0 0 0 32 32z m432 272a32 32 0 0 0-32-32h-96a32 32 0 0 0 0 64h96a32 32 0 0 0 32-32z m-704 0a32 32 0 0 0-32-32h-96a32 32 0 0 0 0 64h96a32 32 0 0 0 32-32zM728 742.112a32 32 0 0 0 11.712-43.712l-48-83.136a32 32 0 0 0-55.424 32l48 83.136a32 32 0 0 0 43.712 11.712z m-352-609.664a32 32 0 0 0 11.712-43.712l-48-83.136a32 32 0 1 0-55.424 32l48 83.136a32 32 0 0 0 43.712 11.712z m510.112 19.552a32 32 0 0 0-43.712-11.712l-83.136 48a32 32 0 0 0 32 55.424l83.136-48a32 32 0 0 0 11.712-43.712z m-609.664 352a32 32 0 0 0-43.712-11.712l-83.136 48a32 32 0 0 0 32 55.424l83.136-48a32 32 0 0 0 11.712-43.712z m609.664 80a32 32 0 0 0-11.712-43.712l-83.136-48a32 32 0 0 0-32 55.424l83.136 48a32 32 0 0 0 43.712-11.712z m-609.664-352a32 32 0 0 0-11.712-43.712l-83.136-48a32 32 0 1 0-32 55.424l83.136 48a32 32 0 0 0 43.712-11.712z m451.552-238.112a32 32 0 0 0-43.712 11.712l-48 83.136a32 32 0 0 0 55.424 32l48-83.136a32 32 0 0 0-11.712-43.712z m-352 609.664a32 32 0 0 0-43.712 11.712l-48 83.136a32 32 0 1 0 55.424 32l48-83.136a32 32 0 0 0-11.712-43.712z"
                   horiz-adv-x="1024"/>


            <glyph glyph-name="baiban" unicode="&#58890;"
                   d="M512 128c-140.8 0-256 115.2-256 256s115.2 256 256 256 256-115.2 256-256-115.2-256-256-256z m0 64c105.6 0 192 86.4 192 192s-86.4 192-192 192-192-86.4-192-192 86.4-192 192-192z m0 640c19.2 0 32-12.8 32-32v-64c0-19.2-12.8-32-32-32s-32 12.8-32 32V800c0 19.2 12.8 32 32 32z m0-768c19.2 0 32-12.8 32-32v-64c0-19.2-12.8-32-32-32s-32 12.8-32 32v64c0 19.2 12.8 32 32 32z m448 320c0-19.2-12.8-32-32-32h-64c-19.2 0-32 12.8-32 32s12.8 32 32 32h64c19.2 0 32-12.8 32-32zM192 384c0-19.2-12.8-32-32-32H96c-19.2 0-32 12.8-32 32s12.8 32 32 32h64c19.2 0 32-12.8 32-32z m636.8 316.8c12.8-12.8 12.8-32 0-44.8l-44.8-44.8c-12.8-12.8-32-12.8-44.8 0s-12.8 32 0 44.8l44.8 44.8c12.8 12.8 32 12.8 44.8 0z m-544-544c12.8-12.8 12.8-32 0-44.8l-44.8-44.8c-12.8-12.8-32-12.8-44.8 0-12.8 12.8-12.8 32 0 44.8l44.8 44.8c12.8 12.8 32 12.8 44.8 0z m544-89.6c-12.8-12.8-32-12.8-44.8 0l-44.8 44.8c-12.8 12.8-12.8 32 0 44.8s32 12.8 44.8 0l44.8-44.8c12.8-12.8 12.8-32 0-44.8z m-544 544c-12.8-12.8-32-12.8-44.8 0L195.2 656c-12.8 12.8-12.8 32 0 44.8 12.8 12.8 32 12.8 44.8 0l44.8-44.8c12.8-12.8 12.8-32 0-44.8z"
                   horiz-adv-x="1024"/>


            <glyph glyph-name="guandao" unicode="&#58891;"
                   d="M800 0h-88.32c-174.624 0-322.08 163.04-322.08 344.864V416c0 20.48-15.136 35.744-35.264 35.744H256V448a64 64 0 0 0-64-64H128a64 64 0 0 0-64 64V768a64 64 0 0 0 64 64h64a64 64 0 0 0 64-64h92.032c174.624 0 322.112-163.008 322.112-344.832v-67.424c0-20.48 15.136-35.744 35.264-35.744H800a64 64 0 0 0 64 64h64a64 64 0 0 0 64-64v-320a64 64 0 0 0-64-64h-64a64 64 0 0 0-64 64zM256 704v-188.256h98.336c55.552 0 99.264-44 99.264-99.744v-71.136c0-147.84 120.32-280.864 258.112-280.864h88.064v192h-94.4c-55.552 0-99.232 44.032-99.232 99.744v67.424c0 147.84-120.32 280.832-258.112 280.832H256z m-64-252.256V768H128v-320h64v3.744zM864 320v-320h64V320h-64z"
                   horiz-adv-x="1024"/>


            <glyph glyph-name="xinpian" unicode="&#58892;"
                   d="M288 0H192a64 64 0 0 0-64 64v96H64a32 32 0 0 0 0 64h64v128H64a32 32 0 0 0 0 64h64v128H64a32 32 0 0 0 0 64h64V704a64 64 0 0 0 64 64h96V832a32 32 0 1 0 64 0v-64h128V832a32 32 0 0 0 64 0v-64h128V832a32 32 0 0 0 64 0v-64h96a64 64 0 0 0 64-64v-96h64a32 32 0 0 0 0-64h-64v-128h64a32 32 0 0 0 0-64h-64v-128h64a32 32 0 0 0 0-64h-64v-96a64 64 0 0 0-64-64h-96v-64a32 32 0 0 0-64 0v64h-128v-64a32 32 0 0 0-64 0v64h-128v-64a32 32 0 0 0-64 0v64z m192 418.24l-32.64-38.88a32 32 0 0 0-49.024 41.12l82.304 98.048a32 32 0 0 0 31.36 10.72 32 32 0 0 0 31.36-10.72l82.304-98.048a32 32 0 0 0-49.024-41.12L544 418.24V256a32 32 0 0 0-64 0v162.24zM192 704v-640h640V704H192z m128-128v-384h384V576H320z m0 64h384a64 64 0 0 0 64-64v-384a64 64 0 0 0-64-64H320a64 64 0 0 0-64 64V576a64 64 0 0 0 64 64z"
                   horiz-adv-x="1024"/>


            <glyph glyph-name="baohu" unicode="&#58893;"
                   d="M544 416h192a32 32 0 0 0 0-64h-192v-192a32 32 0 0 0-64 0v192H288a32 32 0 0 0 0 64h192V608a32 32 0 0 0 64 0v-192z m73.824 337.92a737.312 737.312 0 0 0-74.336 51.52A509.44 509.44 0 0 0 512 832a516.48 516.48 0 0 0-31.52-26.688 727.168 727.168 0 0 0-74.208-51.584c-83.584-50.72-165.216-77.184-243.456-77.184-0.832 0-2.816-2.112-2.816-6.272v-222.656c0-176.704 101.856-328.096 351.68-511.36 0.256-0.256 0.32-0.256 0.32-0.256s0.064 0 0.352 0.224C762.144 119.52 864 270.944 864 447.616V670.272c0 4.096-1.984 6.24-1.6 6.24-78.912 0-160.48 26.432-244.576 77.376z m33.152 54.72c74.08-44.864 144.64-68.128 211.456-68.128C898.944 739.84 928 708.48 928 670.272v-222.656c0-201.28-114.048-369.472-377.792-562.976A64.448 64.448 0 0 0 512-128c-13.696 0-26.976 4.384-38.208 12.64C210.048 78.144 96 246.336 96 447.616V670.272c0 38.656 29.76 70.272 66.816 70.272 66.016 0 136.608 23.2 210.272 67.904 23.68 14.336 46.4 30.208 67.648 47.04 11.168 8.864 20.8 17.056 26.336 22.24C479.488 889.6 495.36 896 512 896c16.64 0 32.544-6.432 44.8-18.176 4.48-4.256 15.2-13.376 26.336-22.144a673.344 673.344 0 0 1 67.84-47.04z"
                   horiz-adv-x="1024"/>


            <glyph glyph-name="guanwang" unicode="&#58894;"
                   d="M740.032 672h-126.752a96 96 0 0 1-61.952-22.688l-49.024-41.408a160 160 0 0 0-103.264-37.76H384V416h356.032A128.064 128.064 0 0 0 992 384a128 128 0 0 0-251.968-32H384v-192h15.04a160 160 0 0 0 103.264-37.792l49.024-41.408a96 96 0 0 1 61.952-22.688h125.376A128.032 128.032 0 0 0 992 32a128 128 0 0 0-250.304-37.888h-128.416a160 160 0 0 0-103.264 37.792l-49.024 41.408A96 96 0 0 1 399.04 96H384v-160a32 32 0 0 0-64 0V352H256a32.32 32.32 0 0 0-3.968 0.256A128.064 128.064 0 0 0 0 384a128 128 0 0 0 252.032 31.744A32.32 32.32 0 0 0 256 416h64V800a32 32 0 0 0 64 0v-165.888h15.04a96 96 0 0 1 61.952 22.688l49.024 41.408A160 160 0 0 0 613.28 736h126.752A128.064 128.064 0 0 0 992 704a128 128 0 0 0-251.968-32zM128 320a64 64 0 1 1 0 128 64 64 0 0 1 0-128z m736 0a64 64 0 1 1 0 128 64 64 0 0 1 0-128z m0-352a64 64 0 1 1 0 128 64 64 0 0 1 0-128z m0 672a64 64 0 1 1 0 128 64 64 0 0 1 0-128z"
                   horiz-adv-x="1024"/>


            <glyph glyph-name="pingzhi" unicode="&#58895;"
                   d="M654.752 768l77.472-225.28h213.44L800.32 754.08A32 32 0 0 1 773.952 768h-119.2z m-67.648 0h-147.68l-75.04-225.28h300.16L587.104 768z m-215.136 0H281.28a32 32 0 0 1-26.4-13.888l-145.28-211.424h187.296L371.968 768z m77.984-686.656L297.92 478.72H115.072L449.92 81.344z m163.488-5.216l328.192 402.56h-208.384L613.44 76.16z m53.024 402.56h-299.968l168.704-441.088 131.264 441.088z m335.68-27.072l-392.96-481.952a96 96 0 0 0-147.776-1.216L54.592 451.104a96 96 0 0 0-5.696 116.224l153.28 223.04A96 96 0 0 0 281.312 832h492.64a96 96 0 0 0 79.104-41.6l153.792-223.744a96 96 0 0 0-4.704-115.04z"
                   horiz-adv-x="1024"/>


            <glyph glyph-name="konzhi" unicode="&#58896;"
                   d="M320 448v-64h64a32 32 0 0 0 0-64H192a32 32 0 0 0 0 64h64v64H96a64 64 0 0 0-64 64V768a64 64 0 0 0 64 64h384a64 64 0 0 0 64-64v-256a64 64 0 0 0-64-64h-160zM96 768v-256h384V768H96z m480-512v-256h96v256h-96z m-32 64h160a32 32 0 0 0 32-32v-320a32 32 0 0 0-32-32h-160a32 32 0 0 0-32 32V288a32 32 0 0 0 32 32z m288-64v-256h96v256h-96z m-32 64h160a32 32 0 0 0 32-32v-320a32 32 0 0 0-32-32h-160a32 32 0 0 0-32 32V288a32 32 0 0 0 32 32z m-192-96h32v-64h-32v64z m256 0h32v-64h-32v64z m-256-128h32v-64h-32v64z m256 0h32v-64h-32v64zM32 320a32 32 0 0 0 64 0v-285.888a32 32 0 0 1 32-32l287.904 0.832a32 32 0 1 0 0.192-64l-287.808-0.832H128a96 96 0 0 0-96 96V320z m960 130.112a32 32 0 0 0-64 0V736a32 32 0 0 1-32 32l-287.904-0.832a32 32 0 1 0-0.192 64L895.712 832H896a96 96 0 0 0 96-96v-285.888z"
                   horiz-adv-x="1024"/>


            <glyph glyph-name="xiaolv" unicode="&#58898;"
                   d="M768 224h64a32 32 0 0 0 0-64H224a32 32 0 0 0 0 64h64V544a64 64 0 0 0 64 64h64a64 64 0 0 0 64-64v-320h96v192a64 64 0 0 0 64 64h64a64 64 0 0 0 64-64v-192z m-64 0v192h-64v-192h64z m-352 0h64V544h-64v-320z m449.12-192a112 112 0 1 0 9.664-64H128a96 96 0 0 0-96 96V544a32 32 0 0 0 64 0v-480a32 32 0 0 1 32-32h673.12zM254.88 736a112 112 0 1 0-9.664 64H896a96 96 0 0 0 96-96v-480a32 32 0 0 0-64 0V704a32 32 0 0 1-32 32H254.88zM144 800a48 48 0 1 1 0-96 48 48 0 0 1 0 96z m768-832a48 48 0 1 1 0 96 48 48 0 0 1 0-96z"
                   horiz-adv-x="1024"/>


            <glyph glyph-name="loading01" unicode="&#58899;"
                   d="M512 800c19.2 0 32-12.8 32-32v-96c0-19.2-12.8-32-32-32s-32 12.8-32 32V768c0 19.2 12.8 32 32 32zM512 96c19.2 0 32-12.8 32-32v-96c0-19.2-12.8-32-32-32s-32 12.8-32 32v96c0 19.2 12.8 32 32 32zM944 368c0-19.2-12.8-32-32-32h-96c-19.2 0-32 12.8-32 32s12.8 32 32 32h96c19.2 0 32-12.8 32-32zM240 368c0-19.2-12.8-32-32-32h-96c-19.2 0-32 12.8-32 32s12.8 32 32 32h96c19.2 0 32-12.8 32-32zM816 672c12.8-12.8 12.8-32 0-44.8l-67.2-67.2c-12.8-12.8-32-12.8-44.8 0-12.8 12.8-12.8 32 0 44.8L771.2 672c12.8 12.8 35.2 12.8 44.8 0zM320 176c12.8-12.8 12.8-32 0-44.8L252.8 64c-12.8-12.8-32-12.8-44.8 0-12.8 12.8-12.8 32 0 44.8l67.2 67.2c12.8 12.8 32 12.8 44.8 0zM816 64c-12.8-12.8-32-12.8-44.8 0L704 131.2c-12.8 12.8-12.8 32 0 44.8 12.8 12.8 32 12.8 44.8 0l67.2-67.2c12.8-12.8 12.8-35.2 0-44.8zM320 560c-12.8-12.8-32-12.8-44.8 0L208 627.2c-12.8 12.8-12.8 35.2 0 44.8 12.8 12.8 32 12.8 44.8 0L320 604.8c12.8-12.8 12.8-32 0-44.8zM678.4 768c16-6.4 25.6-25.6 16-41.6l-35.2-89.6c-6.4-16-25.6-25.6-41.6-16-16 6.4-25.6 25.6-16 41.6l35.2 89.6c6.4 12.8 25.6 22.4 41.6 16zM406.4 115.2c16-6.4 25.6-25.6 16-41.6l-35.2-89.6c-6.4-16-25.6-25.6-41.6-16-16 6.4-25.6 25.6-16 41.6l35.2 89.6c9.6 16 25.6 25.6 41.6 16zM912 201.6c-6.4-16-25.6-25.6-41.6-16l-89.6 35.2c-16 6.4-25.6 25.6-16 41.6 6.4 16 25.6 25.6 41.6 16l89.6-35.2c12.8-6.4 22.4-25.6 16-41.6zM259.2 473.6c-6.4-16-25.6-25.6-41.6-16L128 492.8c-16 6.4-25.6 25.6-16 41.6 6.4 16 25.6 25.6 41.6 16l89.6-35.2c16-9.6 25.6-25.6 16-41.6zM912 534.4c6.4-16 0-35.2-16-41.6l-89.6-35.2c-16-6.4-35.2 0-41.6 16-6.4 16 0 35.2 16 41.6l89.6 35.2c16 6.4 35.2 0 41.6-16zM259.2 262.4c6.4-16 0-35.2-16-41.6l-89.6-35.2c-16-6.4-35.2 0-41.6 16-6.4 16 0 35.2 16 41.6l89.6 35.2c19.2 9.6 35.2 3.2 41.6-16zM678.4-32c-16-6.4-35.2 0-41.6 16l-35.2 89.6c-6.4 16 0 35.2 16 41.6 16 6.4 35.2 0 41.6-16l35.2-89.6c6.4-16 0-35.2-16-41.6zM406.4 620.8c-16-6.4-35.2 0-41.6 16l-35.2 89.6c-6.4 16 0 35.2 16 41.6 16 6.4 35.2 0 41.6-16l35.2-89.6c9.6-19.2 3.2-35.2-16-41.6z"
                   horiz-adv-x="1024"/>


            <glyph glyph-name="shengtai" unicode="&#58900;"
                   d="M175.563646 297.183292l-57.341608-15.360486a31.541038 31.541038 0 0 0-16.306717 60.937286l121.843031 32.644975a31.477956 31.477956 0 0 0 26.242144-4.604992c8.106047-3.784925 14.57196-11.039363 17.095243-20.407051l32.644975-121.874573a31.541038 31.541038 0 1 0-60.937286-16.306717l-12.521793 46.680737-128.750519-222.995142c-14.193467-24.633551-15.581273-22.583384 19.397739-22.583384l363.542009 0.126165a31.541038 31.541038 0 1 0 0-63.082077l-363.510468-0.126164c-81.344338 0-113.800067 48.352412-74.058358 117.174957l132.661608 229.776466zM655.460546-31.600493l42.170368-42.170369a31.541038 31.541038 0 1 0-44.599028-44.599028l-89.229598 89.198057a31.477956 31.477956 0 0 0-9.146901 25.012043 31.477956 31.477956 0 0 0 9.146901 25.012044l89.229598 89.198056a31.541038 31.541038 0 0 0 44.599028-44.599028l-33.969698-33.969698h256.96484c28.386935 0 27.314539-2.207873 9.809263 28.071524l-181.865628 314.779564a31.541038 31.541038 0 0 0 54.629079 31.541038l181.865628-314.779564c40.68794-70.399598 15.045075-122.69464-64.438342-122.694639h-265.16551z m38.763936 648.48375l15.455109 57.593937a31.541038 31.541038 0 0 0 60.905745-16.338258l-32.644975-121.874573a31.477956 31.477956 0 0 0-17.095242-20.375511 31.477956 31.477956 0 0 0-26.242144-4.604991l-121.843032 32.644975a31.541038 31.541038 0 1 0 16.306717 60.937286l46.428409-12.45871-128.498191 222.553567c-14.193467 24.60201-11.733266 24.791256-29.207002-5.519682L296.113495 494.504028a31.541038 31.541038 0 0 0-54.629079 31.541039l181.676382 314.874187c40.624858 70.431139 98.72345 74.40531 138.465158 5.551222l132.598526-229.61876zM509.961735 169.315922a157.705192 157.705192 0 1 0 0 315.410384 157.705192 157.705192 0 0 0 0-315.410384z m0 63.082077a94.623115 94.623115 0 1 1 0 189.24623 94.623115 94.623115 0 0 1 0-189.24623z"
                   horiz-adv-x="1024"/>


            <glyph glyph-name="yeban" unicode="&#58901;"
                   d="M512 96c160 0 288 128 288 288 0 118.4-73.6 224-179.2 265.6 19.2-38.4 32-83.2 32-131.2 0-153.6-124.8-278.4-278.4-278.4-44.8 0-89.6 12.8-128 32C288 169.6 390.4 96 512 96z m0-64c-185.6 0-336 140.8-352 320 0 16 16 32 32 32 9.6 0 25.6-12.8 25.6-9.6 38.4-41.6 92.8-67.2 156.8-67.2 118.4 0 214.4 96 214.4 214.4 0 60.8-25.6 118.4-67.2 156.8-6.4 6.4-9.6 16-9.6 25.6 0 19.2 12.8 32 32 32 179.2-16 320-166.4 320-352 0-195.2-156.8-352-352-352z"
                   horiz-adv-x="1024"/>


            <glyph glyph-name="yuanchengkonzhi" unicode="&#58902;"
                   d="M768 32v-64h64a32 32 0 0 0 0-64h-192a32 32 0 0 0 0 64h64v64h-160a64 64 0 0 0-64 64v256a64 64 0 0 0 64 64h384a64 64 0 0 0 64-64v-256a64 64 0 0 0-64-64h-160zM320 480v-64h64a32 32 0 0 0 0-64H192a32 32 0 0 0 0 64h64v64H96a64 64 0 0 0-64 64V800a64 64 0 0 0 64 64h384a64 64 0 0 0 64-64v-256a64 64 0 0 0-64-64h-160zM96 800v-256h384V800H96z m448-448v-256h384v256H544z m448 130.112a32 32 0 0 0-64 0V768a32 32 0 0 1-32 32l-287.904-0.832a32 32 0 1 0-0.192 64L895.712 864H896a96 96 0 0 0 96-96v-285.888zM32 288a32 32 0 0 0 64 0v-285.888a32 32 0 0 1 32-32l287.904 0.832a32 32 0 1 0 0.192-64l-287.808-0.832H128a96 96 0 0 0-96 96V288z"
                   horiz-adv-x="1024"/>


            <glyph glyph-name="zhinengshebei" unicode="&#58903;"
                   d="M997.12-74.4h-19.072v112.384a26.848 26.848 0 0 1-26.88 26.816h-107.552a26.848 26.848 0 0 1-26.88-26.816v-112.384H760.96a188.256 188.256 0 0 1-186.24 160.8h-43.008s-0.192 145.6-0.576 147.36a140.16 140.16 0 0 1-40.768 110.912l-142.08 141.664 168.224 167.712c8.128 8.096 14.976 17.344 20.32 27.456h166.944c14.848 0 26.88 12 26.88 26.816v26.784h62.72v-26.816c0-9.6 5.12-18.432 13.44-23.232l93.216-53.632a26.912 26.912 0 0 1 26.88 0l93.216 53.632a26.752 26.752 0 0 1 9.856 36.608 26.944 26.944 0 0 1-36.736 9.824l-79.776-45.888-66.304 38.144V800.096l66.304 38.144 79.776-45.888a26.944 26.944 0 0 1 36.736 9.792 26.752 26.752 0 0 1-9.856 36.64L926.944 892.416a26.944 26.944 0 0 1-26.88 0l-93.184-53.632a26.784 26.784 0 0 1-13.44-23.232v-26.848h-62.72v26.816a26.848 26.848 0 0 1-26.912 26.784h-231.04a114.656 114.656 0 0 1-117.792-27.2L159.36 620.16c-72.384-12.8-127.552-75.904-127.552-151.68 0-50.72 24.672-95.776 62.72-123.84 4.832-7.04 10.304-13.6 16.352-19.616l147.232-146.784v-91.84H225.28a188.288 188.288 0 0 1-186.24-160.8H15.264 26.88a26.848 26.848 0 0 1-26.88-26.784c0-14.816 12.032-26.816 26.88-26.816h970.24a26.848 26.848 0 0 1 0 53.6zM676.928 788.704v-53.6h-126.976a113.728 113.728 0 0 1-13.664 53.6h140.64z m-241.184 6.176a60.224 60.224 0 0 0 42.784-102.944l-154.304-153.824a155.168 155.168 0 0 1-93.056 77.824l161.824 161.28a60.16 60.16 0 0 0 42.752 17.664zM85.568 468.48a100.8 100.8 0 0 0 100.8 100.48 100.8 100.8 0 0 0 100.8-100.48 100.8 100.8 0 0 0-100.8-100.512 100.8 100.8 0 0 0-100.8 100.48z m248.896-44.16l117.92-117.568a87.008 87.008 0 0 0 0-123.168 86.944 86.944 0 0 0-61.792-25.504c-23.36 0-45.28 9.056-61.76 25.504l-131.648 131.2a154.784 154.784 0 0 1 137.28 109.504z m143.52-369.92h-166.08v73.984c23.68-15.872 51.2-23.84 78.688-23.84a141.12 141.12 0 0 1 87.36 30.176v-80.32zM96-64c12.48 61.088 64.32 64.8 129.248 64.8h349.504c64.928 0 116.768-3.712 129.248-64.8H96z m832 0h-64v64.8L928 0v-64zM186.368 495.264a26.88 26.88 0 0 1-26.88-26.816 26.88 26.88 0 0 1 53.76 0 26.88 26.88 0 0 1-26.88 26.816z"
                   horiz-adv-x="1033"/>


            <glyph glyph-name="ai" unicode="&#58904;"
                   d="M448.193437-94.422633l0.031887-1.690029a31.887338 31.887338 0 0 0-31.887338-31.887338h-63.774676a63.774676 63.774676 0 0 0-63.774676 63.774676V3.152621a31.887338 31.887338 0 0 1-31.887338 31.887338H225.013958a63.774676 63.774676 0 0 0-63.774677 63.774677v75.955639l-70.343467 35.171734a63.774676 63.774676 0 0 0-16.581416 102.135143L161.239281 399.002036l0.095662 55.260757C184.963461 743.799822 313.915856 895.392227 543.791676 895.998087c230.067144 0.605859 359.019539-151.783729 382.648057-443.871746a31.887338 31.887338 0 1 0-63.583352-5.101974C841.715075 708.72375 736.805733 832.701721 543.983 832.223411 350.968943 831.713213 246.059601 708.37299 225.013958 451.679918v-52.677882A63.774676 63.774676 0 0 0 206.327977 353.91334l-86.924883-86.924884 70.343468-35.171733A63.774676 63.774676 0 0 0 225.013958 174.770275V98.814636h31.887338a95.662014 95.662014 0 0 0 95.662014-95.662015v-67.377945h38.488017l150.508235 377.801181a64.635634 64.635634 0 0 0 118.939771 2.04079l171.171231-389.727046a31.664127 31.664127 0 0 0-16.708965-41.8043 32.333761 32.333761 0 0 0-42.346385 16.485754L713.84685 34.402213a31.887338 31.887338 0 0 0-7.334088-0.860958h-207.363359L448.225324-94.422633z m238.102753 191.54724l-84.820319 193.173494-76.976034-193.173494h161.796353zM927.141254 322.026002v-413.259901a31.887338 31.887338 0 0 0-31.887338-31.887338H894.648057a31.887338 31.887338 0 0 0-31.887338 31.887338V322.026002a31.887338 31.887338 0 0 0 31.887338 31.887338h0.605859a31.887338 31.887338 0 0 0 31.887338-31.887338z"
                   horiz-adv-x="1024"/>


            <glyph glyph-name="yuanquan" unicode="&#58905;"
                   d="M512-64C264.576-64 64 136.576 64 384S264.576 832 512 832s448-200.576 448-448-200.576-448-448-448z m0 128c176.736 0 320 143.264 320 320S688.736 704 512 704 192 560.736 192 384s143.264-320 320-320z"
                   horiz-adv-x="1024"/>


            <glyph glyph-name="circle-xiangyou" unicode="&#58906;"
                   d="M512-64C264.576-64 64 136.576 64 384S264.576 832 512 832s448-200.576 448-448-200.576-448-448-448zM361.376 617.376L594.752 384l-233.376-233.376a32 32 0 0 1 45.248-45.248l256 256a32 32 0 0 1 0 45.248l-256 256a32 32 0 0 1-45.248-45.248z"
                   horiz-adv-x="1024"/>


            <glyph glyph-name="jiankon" unicode="&#58907;"
                   d="M846.208-22.304l-192.576 1.12a96 96 0 0 0-95.424 96V133.12l-129.088-129.088a64 64 0 0 0-90.528 0L290.56 52.064l-13.12-13.12a64 64 0 0 0-90.496 0l-145.28 145.312a64 64 0 0 0 0 90.528l13.12 13.12-32.96 32.896a64 64 0 0 0 0 90.496L461.28 850.752a64 64 0 0 0 90.528 0l316.8-316.8a64 64 0 0 0 0-90.496l-246.4-246.368v-122.24a32 32 0 0 1 31.84-32l192.192-1.152V160a32 32 0 0 0 64 0v-256a32 32 0 1 0-64 0v73.696z m-288 245.92V224h0.384l264.704 264.704-316.8 316.8L67.072 366.048l78.176-78.176-58.368-58.336 145.28-145.28 58.368 58.336 93.312-93.344 174.368 174.368zM254.208 320a48 48 0 1 0 0 96 48 48 0 0 0 0-96z"
                   horiz-adv-x="1024"/>


            <glyph glyph-name="fueuqi" unicode="&#58908;"
                   d="M128 768v-128h768V768H128z m0 64h768a64 64 0 0 0 64-64v-128a64 64 0 0 0-64-64H128a64 64 0 0 0-64 64V768a64 64 0 0 0 64 64z m0-384v-128h768v128H128z m0 64h768a64 64 0 0 0 64-64v-128a64 64 0 0 0-64-64H128a64 64 0 0 0-64 64v128a64 64 0 0 0 64 64z m0-384v-128h768v128H128z m0 64h768a64 64 0 0 0 64-64v-128a64 64 0 0 0-64-64H128a64 64 0 0 0-64 64v128a64 64 0 0 0 64 64zM208 736h96a16 16 0 0 0 16-16v-32a16 16 0 0 0-16-16h-96a16 16 0 0 0-16 16v32a16 16 0 0 0 16 16z m0-320h96a16 16 0 0 0 16-16v-32a16 16 0 0 0-16-16h-96a16 16 0 0 0-16 16v32a16 16 0 0 0 16 16z m224 320h352a16 16 0 0 0 16-16v-32a16 16 0 0 0-16-16h-352a16 16 0 0 0-16 16v32a16 16 0 0 0 16 16z m0-320h352a16 16 0 0 0 16-16v-32a16 16 0 0 0-16-16h-352a16 16 0 0 0-16 16v32a16 16 0 0 0 16 16z m-224-320h96a16 16 0 0 0 16-16v-32a16 16 0 0 0-16-16h-96a16 16 0 0 0-16 16v32a16 16 0 0 0 16 16z m224 0h352a16 16 0 0 0 16-16v-32a16 16 0 0 0-16-16h-352a16 16 0 0 0-16 16v32a16 16 0 0 0 16 16z"
                   horiz-adv-x="1024"/>


            <glyph glyph-name="fengyan" unicode="&#58909;"
                   d="M672 672h131.424c101.664 0 160.512-43.968 160.512-128s-58.88-128-160.512-128H256a32 32 0 0 0 0 64h547.424c69.696 0 96.512 20.032 96.512 64s-26.816 64-96.512 64H608a32 32 0 0 0 0 64h64z m0-576h-32a32 32 0 0 0 0 64h163.424c69.696 0 96.512 20.032 96.512 64s-26.816 64-96.512 64H64a32 32 0 0 0 0 64h739.424c101.664 0 160.512-43.968 160.512-128s-58.88-128-160.512-128H672zM288 160h224a32 32 0 0 0 0-64H288a32 32 0 0 0 0 64z m160 512h64a32 32 0 0 0 0-64h-64a32 32 0 0 0 0 64z"
                   horiz-adv-x="1024"/>


            <glyph glyph-name="circle-shanchu" unicode="&#58910;"
                   d="M512-64c247.424 0 448 200.576 448 448S759.424 832 512 832 64 631.424 64 384s200.576-448 448-448z m-160 576v-384h320V512H352z m384 0v-384a64 64 0 0 0-64-64H352a64 64 0 0 0-64 64V512H256a32 32 0 0 0 0 64h512a32 32 0 0 0 0-64h-32z m-320 64h-64V640a96 96 0 0 0 96 96h128a96 96 0 0 0 96-96v-64h-64V640a32 32 0 0 1-32 32h-128a32 32 0 0 1-32-32v-64z m32-128a32 32 0 0 0 32-32v-192a32 32 0 0 0-64 0v192a32 32 0 0 0 32 32z m128 0a32 32 0 0 0 32-32v-192a32 32 0 0 0-64 0v192a32 32 0 0 0 32 32z"
                   horiz-adv-x="1024"/>


            <glyph glyph-name="yaoyi" unicode="&#58911;"
                   d="M576 798.688V480h346.688C893.952 651.328 751.744 784.192 576 798.688zM992 416H576a64 64 0 0 0-64 64V862.88c10.56 0.736 21.248 1.12 32 1.12 247.424 0 448-200.576 448-448zM96 353.12c0-212.064 171.936-384 384-384 190.272 0 348.224 138.4 378.688 320H512a128 128 0 0 0-128 128V725.056c-166.24-42.72-288-193.76-288-371.936z m352 64a64 64 0 0 1 64-64h416c0-247.424-200.576-448-448-448s-448 200.576-448 448C32 589.792 215.52 783.584 448 800v-382.88z"
                   horiz-adv-x="1024"/>


            <glyph glyph-name="kefu" unicode="&#58912;"
                   d="M637.952-5.344a112.032 112.032 0 1 0-6.24 63.68c9.376 0.96 17.728 2.464 25.024 4.48 10.976 3.072 40.864 40.864 79.264 109.184V541.76a225.92 225.92 0 0 0 91.2-5.632C792.672 714.56 689.472 800 511.872 800c-177.28 0-279.36-85.12-312-263.072A224.416 224.416 0 0 0 288 541.728v-443.456A224 224 0 0 0 130.528 505.6C158.944 741.28 288.416 864 511.904 864c224.256 0 355.04-123.488 385.28-360.96A224 224 0 0 0 765.504 96c-35.104-56.256-63.808-87.136-91.648-94.88a216.032 216.032 0 0 0-35.904-6.496z m-63.456 9.376l1.184 17.472a48 48 0 1 1-1.184-17.472zM224 476.8a160.064 160.064 0 0 1 0-313.6v313.6zM928 320a160.064 160.064 0 0 1-128 156.8v-313.6a160.064 160.064 0 0 1 128 156.8z"
                   horiz-adv-x="1024"/>


            <glyph glyph-name="cztttjd" unicode="&#58913;"
                   d="M500.48 128.8a32 32 0 1 0 0-64H128a96 96 0 0 0-96 96V704a96 96 0 0 0 96 96h768a96 96 0 0 0 96-96v-386.432a32 32 0 0 0-64 0V704a32 32 0 0 1-32 32H128a32 32 0 0 1-32-32v-543.2a32 32 0 0 1 32-32h372.48zM272 256a48 48 0 1 1 0 96 48 48 0 0 1 0-96z m0-64a112 112 0 1 0 0 224 112 112 0 0 0 0-224zM432 512a48 48 0 1 1 0 96 48 48 0 0 1 0-96z m0-64a112 112 0 1 0 0 224 112 112 0 0 0 0-224zM592 256a48 48 0 1 1 0 96 48 48 0 0 1 0-96z m0-64a112 112 0 1 0 0 224 112 112 0 0 0 0-224zM752 512a48 48 0 1 1 0 96 48 48 0 0 1 0-96z m0-64a112 112 0 1 0 0 224 112 112 0 0 0 0-224zM672 128m32 0l256 0q32 0 32-32l0 0q0-32-32-32l-256 0q-32 0-32 32l0 0q0 32 32 32ZM864 256m0-32l0-256q0-32-32-32l0 0q-32 0-32 32l0 256q0 32 32 32l0 0q32 0 32-32ZM342.336 323.968L288 357.792 384 512l54.336-33.824zM662.336 323.968L608 357.792 704 512l54.336-33.824zM548.608 330.688l50.496 39.328-116.224 152.576-50.496-39.328z"
                   horiz-adv-x="1024"/>


            <glyph glyph-name="xingxing" unicode="&#58914;"
                   d="M448.288 105.6a128 128 0 0 0 119.104 0l175.2-92.128-33.44 195.104a128 128 0 0 0 36.8 113.28l141.76 138.144-195.904 28.48a128 128 0 0 0-96.384 70.016L507.84 736l-87.584-177.504a128 128 0 0 0-96.384-70.016L128 460l141.76-138.144a128 128 0 0 0 36.8-113.28L273.088 13.44l175.2 92.128z m29.76-56.64L302.88-43.2a64 64 0 0 0-92.864 67.456l33.44 195.104a64 64 0 0 1-18.4 56.64l-141.728 138.144a64 64 0 0 0 35.456 109.184l195.872 28.48a64 64 0 0 1 48.192 34.976l87.616 177.504a64 64 0 0 0 114.784 0L652.8 586.816a64 64 0 0 1 48.192-35.008l195.84-28.48a64 64 0 0 0 35.52-109.12l-141.76-138.176a64 64 0 0 1-18.4-56.64l33.44-195.104a64 64 0 0 0-92.864-67.456l-175.168 92.096a64 64 0 0 1-59.584 0z"
                   horiz-adv-x="1024"/>


            <glyph glyph-name="zuidahua" unicode="&#58915;"
                   d="M832 103.52V224a32 32 0 0 0 64 0v-192a32 32 0 0 0-32.16-32H672a32 32 0 0 0 0 64h108.16l-161.472 144.32A32 32 0 1 0 661.312 256L832 103.552zM128 32v192a32 32 0 0 0 64 0v-120.48L362.688 256a32 32 0 1 0 42.624-47.744L243.84 64H352a32 32 0 0 0 0-64H160a32 32 0 0 0-32 32zM192 664.48V544a32 32 0 0 0-64 0V736a32 32 0 0 0 32.16 32H352a32 32 0 0 0 0-64H243.84l161.472-144.32A32 32 0 1 0 362.688 512L192 664.448zM896 736v-192a32 32 0 0 0-64 0V664.48L661.312 512a32 32 0 1 0-42.624 47.744L780.16 704H672a32 32 0 0 0 0 64h192a32 32 0 0 0 32-32z"
                   horiz-adv-x="1024"/>


            <glyph glyph-name="fenxiang" unicode="&#58916;"
                   d="M339.744 287.2a128 128 0 1 0-6.176 198.656 32.64 32.64 0 0 0 0.544 0.352L662.688 707.84a128 128 0 1 0 29.568-57.28l-319.008-215.136c6.912-15.744 10.752-33.12 10.752-51.424 0-16.32-3.072-32-8.64-46.336 2.4-0.896 4.736-2.048 6.944-3.552l321.952-217.152a128 128 0 1 0-29.28-57.44l-328.448 221.536a32 32 0 0 0-6.784 6.144zM256 320a64 64 0 1 1 0 128 64 64 0 0 1 0-128z m544-352a64 64 0 1 1 0 128 64 64 0 0 1 0-128z m-12.416 832a64 64 0 1 1 0-128 64 64 0 0 1 0 128z"
                   horiz-adv-x="1024"/>


            <glyph glyph-name="liuliang" unicode="&#58917;"
                   d="M586.656 695.168a32 32 0 1 0 44.16-46.336l-123.808-117.824a71.52 71.52 0 0 1 19.968-117.024 136.192 136.192 0 0 0 38.592-222.272l-127.36-122.688a32 32 0 0 0-44.416 46.08l127.392 122.688a72.192 72.192 0 0 1-20.48 117.824 135.52 135.52 0 0 0-37.824 221.76l123.776 117.792z m224 0a32 32 0 1 0 44.16-46.336l-123.808-117.824a71.52 71.52 0 0 1 19.968-117.024 136.192 136.192 0 0 0 38.592-222.272l-127.36-122.688a32 32 0 0 0-44.416 46.08l127.392 122.688a72.192 72.192 0 0 1-20.48 117.824 135.52 135.52 0 0 0-37.824 221.76l123.776 117.792z m-448 0a32 32 0 1 0 44.16-46.336l-123.808-117.824a71.52 71.52 0 0 1 19.968-117.024 136.192 136.192 0 0 0 38.592-222.272l-127.36-122.688a32 32 0 0 0-44.416 46.08l127.392 122.688a72.192 72.192 0 0 1-20.48 117.824 135.52 135.52 0 0 0-37.824 221.76l123.776 117.792z"
                   horiz-adv-x="1024"/>


            <glyph glyph-name="yewei" unicode="&#58918;"
                   d="M508.448 705.792a1527.36 1527.36 0 0 1-105.568-123.584c-62.72-82.272-108.896-162.336-131.552-234.72C261.12 315.04 256 284.896 256 257.376 256 125.216 362.88 32 512 32s256 93.184 256 225.376c0 27.52-5.152 57.664-15.328 90.112-22.656 72.384-68.8 152.448-131.552 234.72A1527.36 1527.36 0 0 1 512 709.568l-3.552-3.776zM512 800s320-296.448 320-542.624C832 82.592 688.736-32 512-32S192 82.56 192 257.376C192 503.552 512 800 512 800z m-96-576h192a32 32 0 0 0 0-64h-192a32 32 0 0 0 0 64z m0 128h192a32 32 0 0 0 0-64h-192a32 32 0 0 0 0 64z m0 128h192a32 32 0 0 0 0-64h-192a32 32 0 0 0 0 64z"
                   horiz-adv-x="1024"/>


            <glyph glyph-name="circle-xiangzuo" unicode="&#58919;"
                   d="M512-64C264.576-64 64 136.576 64 384S264.576 832 512 832s448-200.576 448-448-200.576-448-448-448z m150.624 681.376a32 32 0 1 1-45.248 45.248l-256-256a32 32 0 0 1 0-45.248l256-256a32 32 0 0 1 45.248 45.248L429.248 384l233.376 233.376z"
                   horiz-adv-x="1024"/>


            <glyph glyph-name="zhengque" unicode="&#58920;"
                   d="M512-96C246.912-96 32 118.912 32 384 32 649.088 246.912 864 512 864c265.088 0 480-214.912 480-480 0-265.088-214.912-480-480-480z m0 64c229.76 0 416 186.24 416 416S741.76 800 512 800 96 613.76 96 384s186.24-416 416-416z m-64.128 272.64l299.232 288.96a32 32 0 1 0 44.48-46.016l-322.272-311.2a32 32 0 0 0-45.248 0.768l-177.824 184.16a32 32 0 1 0 46.016 44.48l155.616-161.152z"
                   horiz-adv-x="1024"/>


            <glyph glyph-name="shizhong2" unicode="&#58921;"
                   d="M512 0c212.064 0 384 171.936 384 384S724.064 768 512 768 128 596.064 128 384s171.936-384 384-384z m0-64C264.576-64 64 136.576 64 384S264.576 832 512 832s448-200.576 448-448-200.576-448-448-448z m27.968 505.6a64 64 0 1 0-55.936 0C496.64 616.544 505.952 704 512 704c6.048 0 15.36-87.456 27.968-262.4z"
                   horiz-adv-x="1024"/>


            <glyph glyph-name="shengyin" unicode="&#58922;"
                   d="M128 512v-256h128a64 64 0 0 0 38.4-12.8L448 128V640l-153.6-115.2A64 64 0 0 0 256 512H128z m332.8 217.6A32 32 0 0 0 512 704v-640a32 32 0 0 0-51.2-25.6L256 192H96a32 32 0 0 0-32 32V544a32 32 0 0 0 32 32h160l204.8 153.6z m287.328-50.688a32 32 0 1 0 39.744 50.176C902.08 638.592 960 522.752 960 384s-57.92-254.592-172.128-345.088a32 32 0 1 0-39.744 50.176C847.264 167.616 896 265.088 896 384c0 118.88-48.736 216.384-147.872 294.912zM619.2 551.68a32 32 0 0 0 41.6 48.64C731.648 539.744 768 467.04 768 384c0-83.04-36.352-155.744-107.2-216.32a32 32 0 0 0-41.6 48.64C676.352 265.184 704 320.48 704 384c0 63.52-27.648 118.816-84.8 167.68z"
                   horiz-adv-x="1024"/>


            <glyph glyph-name="zhihui" unicode="&#58923;"
                   d="M402.440149 360.187691a207.984531 207.984531 0 1 1 1.951854 273.771638L451.204522 590.282578a143.989291 143.989291 0 1 0-1.919858-186.418135l-46.844515-43.676752z m-34.365445 55.483873l45.532614 42.460842c1.919857 1.791867 4.063698 3.327752 6.271534 4.543662a144.40526 144.40526 0 0 0 0.895933 70.138784 31.99762 31.99762 0 0 0-7.167467 5.023626L369.322612 579.147406A207.280584 207.280584 0 0 1 352.011899 495.953593c0-28.477882 5.727574-55.579866 16.062805-80.314026zM607.992861 827.544931v-63.835252a271.979772 271.979772 0 1 0-63.995241 3.743722V831.928605C342.924575 828.920829 181.78456 671.940504 181.78456 479.954783c0-17.118727 1.279905-34.077465 3.807717-50.81222l3.263757-21.598394-57.115752-102.520375-0.511962-1.023924a29.30982 29.30982 0 0 1 12.863043-39.357073l101.688437-51.612161V127.980961h191.985721v-191.985721h319.976202v251.981259l24.60617 19.198572c85.209663 66.619045 135.381931 165.811668 135.381931 272.779712 0 174.994985-133.814048 320.872135-309.736963 347.590148zM570.49165 895.443881a32.189606 32.189606 0 0 0 14.878893-0.895933C807.274039 877.109245 981.725064 698.146555 981.725064 479.954783c0-130.486295-62.395359-246.925635-159.988101-323.175963v-222.575446c0-34.365444-27.83793-62.203374-62.203373-62.203374H435.973654a62.203374 62.203374 0 0 0-62.203373 62.203374V63.985721H228.43709a46.65253 46.65253 0 0 0-46.65253 46.65253V173.737558l-66.619045 33.789487a93.30506 93.30506 0 0 0-39.325076 128.630433l46.460545 83.449794A404.193938 404.193938 0 0 0 117.821317 479.954783c0 229.742913 193.361619 415.969062 431.967872 415.969063 6.911486 0 13.822972-0.159988 20.702461-0.479965zM559.99643 415.959543a79.99405 79.99405 0 1 1 0 159.988101 79.99405 79.99405 0 0 1 0-159.988101z m0 31.99762a47.99643 47.99643 0 1 0 0 95.992861 47.99643 47.99643 0 0 0 0-95.992861z"
                   horiz-adv-x="1024"/>


            <glyph glyph-name="zhengqi" unicode="&#58924;"
                   d="M272 704a32 32 0 1 0 64 0v-6.304c0-46.72-23.36-90.4-62.24-116.32l-21.376-14.24a27.808 27.808 0 0 1 0-46.272l21.376-14.24a139.808 139.808 0 0 0 62.24-116.32V384a32 32 0 0 0-64 0v6.304c0 25.344-12.672 49.024-33.76 63.04l-21.376 14.272a91.808 91.808 0 0 0 0 152.768l21.376 14.24A75.808 75.808 0 0 1 272 697.664V704z m224 0a32 32 0 0 0 64 0v-6.304c0-46.72-23.36-90.4-62.24-116.32l-21.376-14.24a27.808 27.808 0 0 1 0-46.272l21.376-14.24a139.808 139.808 0 0 0 62.24-116.32V384a32 32 0 0 0-64 0v6.304c0 25.344-12.672 49.024-33.76 63.04l-21.376 14.272a91.808 91.808 0 0 0 0 152.768l21.376 14.24a75.808 75.808 0 0 1 33.76 63.04V704z m224 0a32 32 0 0 0 64 0v-6.304c0-46.72-23.36-90.4-62.24-116.32l-21.376-14.24a27.808 27.808 0 0 1 0-46.272l21.376-14.24a139.808 139.808 0 0 0 62.24-116.32V384a32 32 0 0 0-64 0v6.304c0 25.344-12.672 49.024-33.76 63.04l-21.376 14.272a91.808 91.808 0 0 0 0 152.768l21.376 14.24a75.808 75.808 0 0 1 33.76 63.04V704zM128 224v-128h768v128H128z m0 64h768a64 64 0 0 0 64-64v-128a64 64 0 0 0-64-64H128a64 64 0 0 0-64 64v128a64 64 0 0 0 64 64z"
                   horiz-adv-x="1024"/>


            <glyph glyph-name="jingyin" unicode="&#58925;"
                   d="M128 512v-256h128a64 64 0 0 0 38.4-12.8L448 128V640l-153.6-115.2A64 64 0 0 0 256 512H128z m713.76-128l106.176-126.528a32 32 0 0 0-49.024-41.12L800 334.208l-98.88-117.856a32 32 0 0 0-49.056 41.12L758.24 384l-106.176 126.496a32 32 0 0 0 49.024 41.152L800 433.792l98.88 117.856a32 32 0 0 0 49.056-41.152L841.76 384zM460.8 729.6A32 32 0 0 0 512 704v-640a32 32 0 0 0-51.2-25.6L256 192H96a32 32 0 0 0-32 32V544a32 32 0 0 0 32 32h160l204.8 153.6z"
                   horiz-adv-x="1024"/>


            <glyph glyph-name="wendu" unicode="&#58926;"
                   d="M480.256 316.032A32.32 32.32 0 0 0 480 320V640a32 32 0 0 0 64 0v-320c0-1.344-0.096-2.656-0.256-3.968A128.064 128.064 0 0 0 512 64a128 128 0 0 0-31.744 252.032zM448 704v-327.168l-31.968-18.464a192 192 0 1 1 191.904 0L576 376.832V704a64 64 0 1 1-128 0z m-64 0a128 128 0 1 0 256 0v-290.24a256 256 0 1 0-256 0V704z m128-576a64 64 0 1 1 0 128 64 64 0 0 1 0-128z"
                   horiz-adv-x="1024"/>


            <glyph glyph-name="yonhuguanli" unicode="&#58927;"
                   d="M420.256 384.288A32.32 32.32 0 0 0 416 384c-178.144 0-279.584-91.456-311.68-282.688A32 32 0 0 1 135.808 64h328.352a32 32 0 0 0 0-64H135.872a96 96 0 0 0-94.72 111.904c28.992 172.416 112.736 280.192 247.776 319.392a240 240 0 1 0 131.36-47.04zM432 448a176 176 0 1 1 0 352 176 176 0 0 1 0-352z m425.312-115.776c0 6.208 0.576 12 1.6 18.24 0.352 2.304 0.64 3.872 1.248 6.976l0.48 2.56v4.48l-26.368 15.808c-22.816-22.464-49.376-39.104-81.632-39.104-19.424 0-35.392 6.08-51.904 16.064a206.336 206.336 0 0 0-17.6 12 890.976 890.976 0 0 0-11.264 8.736l-31.488-17.856 0.736-3.584c1.728-8.96 2.784-18.016 2.816-27.456 0.384-32.48-11.52-64-33.408-87.68a119.36 119.36 0 0 0-62.976-35.968 165.92 165.92 0 0 1-3.52-31.264c-0.032-7.232 0.416-16 1.152-23.808l1.28-1.12 1.12-6.4c56.288-11.648 96.384-62.72 96.384-123.072 0-6.272-0.64-12.064-1.632-18.4a207.68 207.68 0 0 0-1.216-6.784l-0.512-2.464v-4.48l24.032-14.528c6.56 6.784 12.8 12.576 20.544 18.72 20.288 16 41.024 26.176 66.88 26.176 29.408 0 61.632-17.984 83.648-39.872l28.032 16.864a146.24 146.24 0 0 0-3.68 32.032c0 60.736 40.544 111.616 96.736 123.104l0.416 2.464c1.184 7.264 2.048 14.336 2.496 20.704a342.592 342.592 0 0 0-7.232 36.16c-55.616 12.096-95.168 62.88-95.168 122.752z m-312.32-188.864a74.88 74.88 0 0 0 1.792-5.12 90.496 90.496 0 0 0-0.768 4.928 118.624 118.624 0 0 1-1.056 0.192z m118.016-171.936c-1.408-1.504-0.48-1.92 5.184-0.448l-0.96 0.608a101.76 101.76 0 0 1-4.224-0.16zM1024 181.504c0-27.2-7.232-57.92-7.232-57.92-3.84-19.264-17.856-34.976-32.352-34.976h-3.328c-31.84 0-57.024-26.56-57.024-61.568 0-11.456 3.328-22.848 3.328-22.848 6.72-19.392 0-42.88-14.528-54.336l-64.224-38.624c-7.232-3.584-10.624-3.584-17.824-3.584-14.528 0-25.184 7.872-32.416 15.744-7.328 11.36-31.808 30.624-46.336 30.624-17.92 0-39.136-22.816-46.336-30.624-7.36-12.16-21.856-15.744-32.48-15.744-7.2 0-10.56 0-17.92-3.648l-64.16 38.72c-14.56 12.096-21.76 34.88-14.56 54.24 0 3.584 3.36 15.04 3.36 22.816 0 34.4-24.544 61.536-56.928 61.536h-3.424c-14.56 0-28.992 15.68-32.384 35.072-3.904 3.52-7.232 34.848-7.232 57.792 0 27.2 7.232 54.304 7.232 57.92 3.904 19.264 17.856 34.976 32.384 34.976h3.424a54.08 54.08 0 0 1 40.512 17.792c10.72 11.584 16.64 27.36 16.416 43.744 0 11.456-3.36 22.944-3.36 22.944-6.72 19.296 0 42.784 14.56 54.24l68.096 38.624c3.968 3.584 7.36 3.584 14.528 3.584 14.528 0 25.184-7.84 32.384-15.648 10.656-7.872 31.904-27.168 46.464-27.168 14.464 0 35.712 19.296 42.976 27.168 7.264 12.064 21.824 15.648 32.32 15.648h17.92l64.224-38.592c14.56-12.032 21.76-35.008 14.56-54.272 0-3.584-3.328-15.072-3.328-22.912 0-34.368 24.576-61.504 56.896-61.504h3.424c14.432 0 28.96-15.68 32.416-35.008 0-4.16 3.296-34.944 9.952-54.208zM752.096 128c25.504 0 48.384 22.72 47.872 48 0 25.376-22.624 48-47.872 48-25.408 0-48.096-22.656-48.096-48 0-25.28 22.72-48 48.096-48z m0-64C691.392 64 640 115.328 640 176c0 60.736 51.392 112 112.096 112C812.672 288 864 236.736 864 176c1.216-60.672-51.36-112-111.872-112z"
                   horiz-adv-x="1024"/>


            <glyph glyph-name="tanhao" unicode="&#58928;"
                   d="M512-64C264.576-64 64 136.576 64 384S264.576 832 512 832s448-200.576 448-448-200.576-448-448-448z m0 128a32 32 0 1 1 0 64 32 32 0 0 1 0-64z m0 640a60.128 60.128 0 0 1-60-63.872l26.016-416.192a34.048 34.048 0 0 1 67.968 0l26.016 416.192A60.128 60.128 0 0 1 512 704z"
                   horiz-adv-x="1024"/>


            <glyph glyph-name="qingchu" unicode="&#58929;"
                   d="M493.92 447.36l-158.4 158.368a32 32 0 0 1-45.248-45.248l158.4-158.4-158.4-158.4a32 32 0 0 1 45.248-45.248l158.4 158.4 158.4-158.4a32 32 0 0 1 45.248 45.248l-158.4 158.4 158.4 158.4a32 32 0 1 1-45.248 45.248l-158.4-158.4zM512-64C264.576-64 64 136.576 64 384S264.576 832 512 832s448-200.576 448-448-200.576-448-448-448z"
                   horiz-adv-x="1024"/>


            <glyph glyph-name="qiti" unicode="&#58930;"
                   d="M704 384v-131.424c0-69.696 20.032-96.512 64-96.512s64 26.816 64 96.512h0.192A32.352 32.352 0 0 0 832 256v64a32 32 0 0 0 64 0v-64c0-1.152-0.064-2.304-0.192-3.424H896c0-101.664-43.968-160.512-128-160.512s-128 58.88-128 160.512V771.52c0 15.712 14.336 28.448 32 28.448s32-12.736 32-28.448V384z m-320 0v-131.424c0-101.664-43.968-160.512-128-160.512-71.808 0-114.336 42.944-125.216 118.848A31.872 31.872 0 0 0 128 224v64a32 32 0 0 0 64 0v-35.424c0-69.696 20.032-96.512 64-96.512s64 26.816 64 96.512V768a32 32 0 0 0 64 0v-384z m128 288a32 32 0 0 0 32-32v-512a32 32 0 0 0-64 0V640a32 32 0 0 0 32 32z m384-672a32 32 0 0 0-32-32H160a32 32 0 0 0 0 64h704a32 32 0 0 0 32-32z"
                   horiz-adv-x="1024"/>


            <glyph glyph-name="circle-tianjia" unicode="&#58931;"
                   d="M480 416H256a32 32 0 0 1 0-64h224v-224a32 32 0 0 1 64 0v224h224a32 32 0 0 1 0 64h-224V640a32 32 0 0 1-64 0v-224z m32-480C264.576-64 64 136.576 64 384S264.576 832 512 832s448-200.576 448-448-200.576-448-448-448z"
                   horiz-adv-x="1024"/>


            <glyph glyph-name="yali" unicode="&#58932;"
                   d="M401.728 385.024L320 466.752A32 32 0 0 0 365.248 512l81.728-81.728a128 128 0 1 0-45.248-45.248z m440.992-46.432a30.144 30.144 0 0 0-30.496 29.76c2.432 105.088-53.536 203.232-146.304 256.48a302.72 302.72 0 0 1-300.512 0c-92.8-53.248-148.768-151.36-146.336-256.448 0-10.656-5.792-20.48-15.232-25.824a31.104 31.104 0 0 0-30.496 0 29.664 29.664 0 0 0-15.232 25.824c-2.688 126.496 64.864 244.544 176.608 308.576 111.712 64 250.144 64 361.888 0 111.712-64 179.264-182.08 176.608-308.576 0-16.48-13.664-29.792-30.496-29.792zM512.064 832c209.504-0.192 394.72-133.024 457.696-328.256 62.976-195.2-10.848-407.776-182.4-525.28a31.008 31.008 0 0 0-42.496 7.296 29.408 29.408 0 0 0 7.456 41.568c149.248 102.048 213.952 286.592 160.064 456.64-53.856 170.016-213.952 286.592-396.16 288.416-182.144 1.856-344.672-111.488-402.112-280.384-57.472-168.896 3.328-354.72 150.4-459.776a29.344 29.344 0 0 0 6.72-41.536 31.04 31.04 0 0 0-42.688-6.56C60.96 104-8.704 315.584 55.776 508.448 120.32 701.344 304.384 831.872 512.096 832zM512 256a64 64 0 1 1 0 128 64 64 0 0 1 0-128z"
                   horiz-adv-x="1024"/>


            <glyph glyph-name="gj" unicode="&#58933;"
                   d="M384 96c0-51.264 55.936-96 128-96s128 44.736 128 96h-256z m-96 0H160a32 32 0 0 0 0 64h64v288a288.128 288.128 0 0 0 192 271.616V736a96 96 0 0 0 192 0v-16.384A288.128 288.128 0 0 0 800 448v-288h64a32 32 0 0 0 0-64h-160c0-90.144-87.36-160-192-160s-192 69.856-192 160H288z m448 64v288a224.096 224.096 0 0 1-149.312 211.264L544 674.368V736a32 32 0 0 1-64 0v-61.632l-42.688-15.104A224.096 224.096 0 0 1 288 448v-288h448z m-224 416a32 32 0 0 0 32-32v-192a32 32 0 0 0-64 0v192a32 32 0 0 0 32 32z m0-288a32 32 0 1 0 0-64 32 32 0 0 0 0 64z"
                   horiz-adv-x="1024"/>


            <glyph glyph-name="circle-duihao" unicode="&#58934;"
                   d="M512-64C264.576-64 64 136.576 64 384S264.576 832 512 832s448-200.576 448-448-200.576-448-448-448z m265.696 630.976L415.68 204.928l-201.056 201.024a32 32 0 1 1-45.248-45.248l223.68-223.68a32 32 0 0 1 45.248 0l384.64 384.672a32 32 0 1 1-45.248 45.28z"
                   horiz-adv-x="1024"/>


            <glyph glyph-name="circle-wenhao" unicode="&#58935;"
                   d="M320 512a32 32 0 0 1 64 0 128 128 0 1 0 128-128 32 32 0 0 1-32-32v-128a32 32 0 0 1 64 0v98.656A192.064 192.064 0 0 1 512 704a192 192 0 0 1-192-192z m192-576C264.576-64 64 136.576 64 384S264.576 832 512 832s448-200.576 448-448-200.576-448-448-448z m0 128a32 32 0 1 1 0 64 32 32 0 0 1 0-64z"
                   horiz-adv-x="1024"/>


            <glyph glyph-name="sjgl" unicode="&#58936;"
                   d="M224 32h64V448H224v-416z m128 0h64V736a64 64 0 0 0 64 64h64a64 64 0 0 0 64-64v-704h64V544a64 64 0 0 0 64 64h64a64 64 0 0 0 64-64v-512h96a32 32 0 0 0 0-64H64a32 32 0 0 0 0 64h96V448a64 64 0 0 0 64 64h64a64 64 0 0 0 64-64v-416z m128 0h64V736h-64v-704z m256 0h64V544h-64v-512z"
                   horiz-adv-x="1024"/>


            <glyph glyph-name="uKey" unicode="&#58897;"
                   d="M714.672 670.256H672V863.728C672 881.52 665.68 895.968 648 895.968H365.328A29.968 29.968 0 0 1 336 863.728v-193.472H298.672C281.072 670.256 272 653.12 272 635.312v-521.264a240 240 0 1 1 480 0V635.312a39.456 39.456 0 0 1-37.328 34.944zM400 831.472h208v-161.216H400V831.472z m288-717.424a176 176 0 1 0-352 0V460.672h352v-346.624z m0 411.104H336V605.76h352v-80.608zM441.328 805.952a32.256 32.256 0 1 1 32-32.24 32.128 32.128 0 0 1-32 32.24z m128 0a32.256 32.256 0 1 1 32-32.24 32.128 32.128 0 0 1-32 32.24z"
                   horiz-adv-x="1024"/>


        </font>
</defs>
</svg>
